<?xml version="1.0" standalone="no"?>
<!DOCTYPE svg PUBLIC "-//W3C//DTD SVG 20010904//EN"
 "http://www.w3.org/TR/2001/REC-SVG-20010904/DTD/svg10.dtd">
<svg version="1.0" xmlns="http://www.w3.org/2000/svg"
 width="512.000000pt" height="512.000000pt" viewBox="0 0 512.000000 512.000000"
 preserveAspectRatio="xMidYMid meet">
<metadata>
Created by potrace 1.11, written by Peter Selinger 2001-2013
</metadata>
<g transform="translate(0.000000,512.000000) scale(0.100000,-0.100000)"
fill="#000000" stroke="none">
<path d="M2285 5105 c-464 -53 -898 -226 -1273 -507 -119 -89 -339 -302 -437
-423 -238 -293 -429 -683 -509 -1041 -82 -365 -86 -731 -11 -1099 76 -375 270
-783 520 -1090 98 -121 318 -334 437 -423 357 -268 756 -433 1203 -498 167
-25 524 -25 690 0 452 66 840 227 1205 499 122 92 395 365 487 487 697 933
697 2166 0 3099 -39 53 -144 168 -232 256 -229 230 -399 352 -680 490 -249
122 -481 196 -747 236 -175 26 -489 33 -653 14z m494 -919 c41 -9 143 -37 226
-61 190 -56 248 -59 298 -15 25 21 45 30 70 30 l35 0 6 -227 c3 -126 9 -339
12 -475 l6 -248 -49 0 -50 0 -13 63 c-32 167 -122 384 -206 503 -88 125 -237
230 -379 268 -151 41 -344 28 -465 -31 -74 -36 -167 -132 -206 -213 -98 -201
-62 -392 105 -560 97 -98 164 -141 516 -330 176 -95 358 -198 405 -228 404
-260 586 -544 567 -882 -12 -211 -80 -374 -217 -522 -216 -235 -540 -353 -920
-335 -150 7 -238 23 -478 82 -100 25 -202 45 -228 45 -43 0 -51 -4 -91 -45
-38 -40 -47 -45 -88 -45 l-45 0 0 550 0 550 58 0 57 0 36 -148 c82 -336 208
-555 395 -688 123 -88 253 -131 424 -141 266 -15 457 83 551 283 93 195 47
427 -115 590 -92 91 -130 116 -501 329 -425 244 -521 310 -676 472 -175 182
-249 381 -236 633 12 220 91 397 245 547 146 142 324 227 549 263 83 13 315 5
402 -14z"/>
</g>
</svg>
